HIERARCHY
ROOT Hips
{
	OFFSET 0.000000 71.427986 0.000000
	CHANNELS 6 Xposition Yposition Zposition Xrotation Yrotation Zrotation
	JOINT Pelvis
	{
		OFFSET 0.000000 0.000000 0.000000
		CHANNELS 3 Xrotation Yrotation Zrotation
		JOINT LeftUpLeg
		{
			OFFSET 6.797100 -2.508499 -1.318700
			CHANNELS 3 Xrotation Yrotation Zrotation
			JOINT LeftLeg
			{
				OFFSET 0.069008 -29.241863 0.690200
				CHANNELS 3 Xrotation Yrotation Zrotation
				JOINT LeftFoot
				{
					OFFSET -0.069008 -29.568123 -0.266800
					CHANNELS 3 Xrotation Yrotation Zrotation
					JOINT LeftToeBase
					{
						OFFSET 3.145500 -8.631000 16.059900
						CHANNELS 3 Xrotation Yrotation Zrotation
						End Site
						{
							OFFSET 0.000000 18.501587 0.000000
						}
					}
				}
			}
			JOINT Left_ShortSleeve
			{
				OFFSET 0.265923 -10.480953 1.153800
				CHANNELS 3 Xrotation Yrotation Zrotation
				End Site
				{
					OFFSET 1.725763 19.823879 0.000000
				}
			}
		}
		JOINT RightUpLeg
		{
			OFFSET -6.797100 -2.508499 -1.318700
			CHANNELS 3 Xrotation Yrotation Zrotation
			JOINT RightLeg
			{
				OFFSET -0.082453 -29.241932 0.688000
				CHANNELS 3 Xrotation Yrotation Zrotation
				JOINT RightFoot
				{
					OFFSET 0.082453 -29.568058 -0.264600
					CHANNELS 3 Xrotation Yrotation Zrotation
					JOINT RightToeBase
					{
						OFFSET -3.115300 -8.682800 16.113400
						CHANNELS 3 Xrotation Yrotation Zrotation
						End Site
						{
							OFFSET 0.000000 18.567114 0.000000
						}
					}
				}
			}
			JOINT Right_ShortSleeve
			{
				OFFSET -0.265923 -10.480953 1.153800
				CHANNELS 3 Xrotation Yrotation Zrotation
				End Site
				{
					OFFSET -1.725766 19.823910 0.000000
				}
			}
		}
	}
	JOINT Spine
	{
		OFFSET 0.000000 13.368103 0.470500
		CHANNELS 3 Xrotation Yrotation Zrotation
		JOINT Spine1
		{
			OFFSET 0.147000 13.837402 0.538800
			CHANNELS 3 Xrotation Yrotation Zrotation
			JOINT Spine2
			{
				OFFSET 0.168000 16.242897 -1.435500
				CHANNELS 3 Xrotation Yrotation Zrotation
				JOINT Neck
				{
					OFFSET 0.217200 18.631500 -1.679100
					CHANNELS 3 Xrotation Yrotation Zrotation
					JOINT Head
					{
						OFFSET 0.000000 6.599396 1.385900
						CHANNELS 3 Xrotation Yrotation Zrotation
						JOINT Hat
						{
							OFFSET -0.532200 27.220596 -10.096100
							CHANNELS 3 Xrotation Yrotation Zrotation
							End Site
							{
								OFFSET 0.000000 22.029861 0.000000
							}
						}
						JOINT HairD
						{
							OFFSET -10.777400 17.437393 -1.325900
							CHANNELS 3 Xrotation Yrotation Zrotation
							JOINT HairD1
							{
								OFFSET -3.290299 -11.051193 1.062200
								CHANNELS 3 Xrotation Yrotation Zrotation
								End Site
								{
									OFFSET 0.000000 11.579437 0.000000
								}
							}
						}
						JOINT HairB
						{
							OFFSET -10.777400 17.437393 1.467900
							CHANNELS 3 Xrotation Yrotation Zrotation
							JOINT HairB1
							{
								OFFSET -1.561200 -12.956299 3.590200
								CHANNELS 3 Xrotation Yrotation Zrotation
								End Site
								{
									OFFSET 0.000000 13.534866 0.000000
								}
							}
						}
						JOINT HairA
						{
							OFFSET 9.713100 17.437393 1.467900
							CHANNELS 3 Xrotation Yrotation Zrotation
							JOINT HairA1
							{
								OFFSET 1.561200 -12.956299 3.590200
								CHANNELS 3 Xrotation Yrotation Zrotation
								End Site
								{
									OFFSET 0.000000 13.534866 0.000000
								}
							}
						}
						JOINT HairC
						{
							OFFSET 9.713100 17.437393 -1.325900
							CHANNELS 3 Xrotation Yrotation Zrotation
							JOINT HairC1
							{
								OFFSET 3.290300 -11.051193 1.062200
								CHANNELS 3 Xrotation Yrotation Zrotation
								End Site
								{
									OFFSET 0.000000 11.579437 0.000000
								}
							}
						}
					}
				}
				JOINT LeftShoulder
				{
					OFFSET 5.101800 15.108002 -2.763700
					CHANNELS 3 Xrotation Yrotation Zrotation
					JOINT LeftArm
					{
						OFFSET 9.825497 2.506317 -1.597400
						CHANNELS 3 Xrotation Yrotation Zrotation
						JOINT LeftForeArm
						{
							OFFSET 21.966244 0.000000 0.000000
							CHANNELS 3 Xrotation Yrotation Zrotation
							JOINT LeftHand
							{
								OFFSET 33.879036 0.000000 0.000000
								CHANNELS 3 Xrotation Yrotation Zrotation
								JOINT LeftHandThumb1
								{
									OFFSET 6.715286 -2.359680 3.363841
									CHANNELS 3 Xrotation Yrotation Zrotation
									JOINT LeftHandThumb2
									{
										OFFSET 2.507072 -1.447464 1.447461
										CHANNELS 3 Xrotation Yrotation Zrotation
										JOINT LeftHandThumb3
										{
											OFFSET 2.898338 -1.673355 1.673357
											CHANNELS 3 Xrotation Yrotation Zrotation
											End Site
											{
												OFFSET -0.295959 3.727692 -0.131651
											}
										}
									}
								}
								JOINT LeftHandIndex1
								{
									OFFSET 14.190811 -0.254547 3.840278
									CHANNELS 3 Xrotation Yrotation Zrotation
									JOINT LeftHandIndex2
									{
										OFFSET 3.551727 0.000000 -0.000000
										CHANNELS 3 Xrotation Yrotation Zrotation
										JOINT LeftHandIndex3
										{
											OFFSET 2.894196 0.000000 0.000000
											CHANNELS 3 Xrotation Yrotation Zrotation
											End Site
											{
												OFFSET -1.000603 2.690872 0.366626
											}
										}
									}
								}
								JOINT LeftHandMiddle1
								{
									OFFSET 13.776489 0.000000 0.000000
									CHANNELS 3 Xrotation Yrotation Zrotation
									JOINT LeftHandMiddle2
									{
										OFFSET 3.438232 0.000000 0.000000
										CHANNELS 3 Xrotation Yrotation Zrotation
										JOINT LeftHandMiddle3
										{
											OFFSET 3.691551 0.000000 0.000000
											CHANNELS 3 Xrotation Yrotation Zrotation
											End Site
											{
												OFFSET -1.082298 3.499527 0.457670
											}
										}
									}
								}
								JOINT LeftHandRing1
								{
									OFFSET 13.966164 -0.268127 -3.067488
									CHANNELS 3 Xrotation Yrotation Zrotation
									JOINT LeftHandRing2
									{
										OFFSET 3.162567 0.000000 0.000000
										CHANNELS 3 Xrotation Yrotation Zrotation
										JOINT LeftHandRing3
										{
											OFFSET 3.324348 0.000000 0.000000
											CHANNELS 3 Xrotation Yrotation Zrotation
											End Site
											{
												OFFSET -0.861900 3.184998 0.405154
											}
										}
									}
								}
								JOINT LeftHandPinky1
								{
									OFFSET 13.131393 -0.168503 -5.746925
									CHANNELS 3 Xrotation Yrotation Zrotation
									JOINT LeftHandPinky2
									{
										OFFSET 2.849182 0.000000 0.000000
										CHANNELS 3 Xrotation Yrotation Zrotation
										JOINT LeftHandPinky3
										{
											OFFSET 2.805038 0.000000 0.000000
											CHANNELS 3 Xrotation Yrotation Zrotation
											End Site
											{
												OFFSET -0.882500 2.642609 0.325652
											}
										}
									}
								}
							}
							JOINT Left_Sleeve
							{
								OFFSET 6.592125 -0.646545 0.805568
								CHANNELS 3 Xrotation Yrotation Zrotation
								End Site
								{
									OFFSET -0.000179 20.275787 -0.000000
								}
							}
						}
					}
				}
				JOINT RightShoulder
				{
					OFFSET -5.731700 15.108002 -2.763700
					CHANNELS 3 Xrotation Yrotation Zrotation
					JOINT RightArm
					{
						OFFSET -9.825497 2.506317 -1.597400
						CHANNELS 3 Xrotation Yrotation Zrotation
						JOINT RightForeArm
						{
							OFFSET -21.966242 0.000000 0.000000
							CHANNELS 3 Xrotation Yrotation Zrotation
							JOINT RightHand
							{
								OFFSET -33.879032 0.000000 0.000000
								CHANNELS 3 Xrotation Yrotation Zrotation
								JOINT RightHandThumb1
								{
									OFFSET -6.715286 -2.359680 3.363841
									CHANNELS 3 Xrotation Yrotation Zrotation
									JOINT RightHandThumb2
									{
										OFFSET -2.507072 -1.447464 1.447461
										CHANNELS 3 Xrotation Yrotation Zrotation
										JOINT RightHandThumb3
										{
											OFFSET -2.898338 -1.673355 1.673357
											CHANNELS 3 Xrotation Yrotation Zrotation
											End Site
											{
												OFFSET 0.295959 3.727692 -0.131651
											}
										}
									}
								}
								JOINT RightHandIndex1
								{
									OFFSET -14.190811 -0.254547 3.840278
									CHANNELS 3 Xrotation Yrotation Zrotation
									JOINT RightHandIndex2
									{
										OFFSET -3.551727 0.000000 -0.000000
										CHANNELS 3 Xrotation Yrotation Zrotation
										JOINT RightHandIndex3
										{
											OFFSET -2.894196 0.000000 0.000000
											CHANNELS 3 Xrotation Yrotation Zrotation
											End Site
											{
												OFFSET 1.000603 2.690872 0.366626
											}
										}
									}
								}
								JOINT RightHandMiddle1
								{
									OFFSET -13.776489 0.000000 0.000000
									CHANNELS 3 Xrotation Yrotation Zrotation
									JOINT RightHandMiddle2
									{
										OFFSET -3.438232 0.000000 0.000000
										CHANNELS 3 Xrotation Yrotation Zrotation
										JOINT RightHandMiddle3
										{
											OFFSET -3.691551 0.000000 0.000000
											CHANNELS 3 Xrotation Yrotation Zrotation
											End Site
											{
												OFFSET 1.082298 3.499527 0.457670
											}
										}
									}
								}
								JOINT RightHandRing1
								{
									OFFSET -13.966164 -0.268127 -3.067488
									CHANNELS 3 Xrotation Yrotation Zrotation
									JOINT RightHandRing2
									{
										OFFSET -3.162567 0.000000 0.000000
										CHANNELS 3 Xrotation Yrotation Zrotation
										JOINT RightHandRing3
										{
											OFFSET -3.324348 0.000000 0.000000
											CHANNELS 3 Xrotation Yrotation Zrotation
											End Site
											{
												OFFSET 0.861900 3.184998 0.405154
											}
										}
									}
								}
								JOINT RightHandPinky1
								{
									OFFSET -13.131393 -0.168503 -5.746925
									CHANNELS 3 Xrotation Yrotation Zrotation
									JOINT RightHandPinky2
									{
										OFFSET -2.849182 0.000000 0.000000
										CHANNELS 3 Xrotation Yrotation Zrotation
										JOINT RightHandPinky3
										{
											OFFSET -2.805038 0.000000 0.000000
											CHANNELS 3 Xrotation Yrotation Zrotation
											End Site
											{
												OFFSET 0.882500 2.642609 0.325652
											}
										}
									}
								}
							}
							JOINT Right_Sleeve
							{
								OFFSET -6.592125 -0.646545 0.805568
								CHANNELS 3 Xrotation Yrotation Zrotation
								End Site
								{
									OFFSET 0.000179 20.275787 -0.000000
								}
							}
						}
					}
				}
				JOINT Bind_Right_JacketString
				{
					OFFSET -3.534800 11.969597 7.200700
					CHANNELS 3 Xrotation Yrotation Zrotation
					JOINT Bind_Right_JacketString1
					{
						OFFSET -0.319900 -6.102600 2.794100
						CHANNELS 3 Xrotation Yrotation Zrotation
						End Site
						{
							OFFSET 0.000000 6.719452 0.000000
						}
					}
				}
				JOINT Bind_Left_JacketString
				{
					OFFSET 2.904800 11.969597 7.200700
					CHANNELS 3 Xrotation Yrotation Zrotation
					JOINT Bind_Left_JacketString1
					{
						OFFSET 0.364800 -5.904503 3.186800
						CHANNELS 3 Xrotation Yrotation Zrotation
						End Site
						{
							OFFSET 0.000000 6.719513 0.000000
						}
					}
				}
				JOINT HairE
				{
					OFFSET 5.915200 17.612701 -11.592200
					CHANNELS 3 Xrotation Yrotation Zrotation
					JOINT HairE1
					{
						OFFSET 0.289200 -7.171898 -1.284500
						CHANNELS 3 Xrotation Yrotation Zrotation
						End Site
						{
							OFFSET 0.000000 7.291756 0.000000
						}
					}
				}
				JOINT HairF
				{
					OFFSET -0.864800 17.612701 -11.592200
					CHANNELS 3 Xrotation Yrotation Zrotation
					JOINT HairF1
					{
						OFFSET 0.000000 -14.087097 -2.127501
						CHANNELS 3 Xrotation Yrotation Zrotation
						End Site
						{
							OFFSET 0.000000 14.246841 0.000000
						}
					}
				}
				JOINT HairG
				{
					OFFSET -8.087700 17.612701 -11.592200
					CHANNELS 3 Xrotation Yrotation Zrotation
					JOINT HairG1
					{
						OFFSET -0.293600 -6.081398 -0.910100
						CHANNELS 3 Xrotation Yrotation Zrotation
						End Site
						{
							OFFSET 0.000000 6.156120 0.000000
						}
					}
				}
			}
		}
	}
	JOINT Pouch
	{
		OFFSET 0.000000 4.394501 10.847300
		CHANNELS 3 Xrotation Yrotation Zrotation
		End Site
		{
			OFFSET 0.000000 21.880577 0.000000
		}
	}
	JOINT Bag
	{
		OFFSET -13.229000 4.813004 -0.593300
		CHANNELS 3 Xrotation Yrotation Zrotation
		End Site
		{
			OFFSET 0.000000 21.880577 0.000000
		}
	}
	JOINT OccupyGuyFacialAnim_Joint
	{
		OFFSET 1.000000 -70.206398 -1.655000
		CHANNELS 3 Xrotation Yrotation Zrotation
		End Site
		{
			OFFSET 0.000000 21.880577 0.000000
		}
	}
}
MOTION
Frames: 4
Frame Time: 0.033333
-0.064609 70.394150 1.370848 3.816396 -3.698828 -0.218006 -0.000000 -0.000000 -0.000000 -7.729783 12.741348 9.399705 9.943399 4.847272 2.173341 -5.357591 0.830637 -10.196830 0.000000 -0.000000 -0.000000 0.000000 0.000001 0.000001 -6.757984 -9.082925 -7.857188 4.947992 1.526856 -2.875568 -2.046945 -0.606583 10.658620 0.000000 0.000000 0.000000 0.000000 -0.000000 -0.000001 0.169512 0.317253 0.048358 0.511368 0.555630 -0.149995 0.508119 0.557001 -0.156049 -12.568405 -1.447527 2.637433 10.197547 3.163033 -2.584843 0.000000 0.000000 0.000000 0.000000 0.000000 0.000000 0.000000 0.000000 0.000000 0.000000 0.000000 0.000000 -0.000000 -0.000000 -0.000000 0.000000 0.000000 0.000000 -0.000000 -0.000000 -0.000000 0.000000 0.000000 0.000000 0.000000 0.000000 0.000000 1.604993 -11.385831 -9.553344 4.693915 -15.510858 -64.447794 -0.000015 -13.259561 -0.000000 1.710953 -1.931710 -8.334577 0.699771 -6.020117 19.223962 19.074662 26.512411 -1.026346 -0.000000 0.000001 -0.000001 0.460235 4.491409 -23.662345 0.883083 3.094841 -31.844203 -0.000002 -0.000001 -0.000002 2.486457 8.732157 -25.419644 1.496284 3.911565 -41.853999 0.000002 0.000004 0.000005 3.090058 8.505063 -34.940369 1.098172 3.416393 -35.630245 0.000000 0.000002 -0.000002 3.603276 12.761721 -45.581298 0.673751 2.729593 -27.725826 -0.000000 -0.000003 -0.000001 -0.000000 0.000000 -0.000000 2.087502 14.855921 10.815231 -4.081929 3.217725 66.340173 0.000002 8.035188 0.000005 10.830509 0.014665 8.013268 -13.495583 -11.552026 -5.371123 13.666560 -20.582674 -6.820311 -0.000000 0.000003 0.000002 0.246055 -3.262793 18.902299 0.589431 -2.269647 29.112636 -0.000001 0.000001 0.000002 -0.702535 -1.215801 21.259804 0.924239 -2.786663 36.691841 -0.000001 -0.000001 -0.000004 -0.941534 -2.664806 38.529261 0.358954 -1.794610 22.620031 -0.000003 0.000002 0.000005 -2.260385 -1.124650 39.408153 0.612402 -2.310406 29.687598 -0.000004 0.000000 -0.000003 0.000001 0.000000 0.000000 0.000000 0.000000 -0.000000 0.000001 -0.000000 -0.000000 0.000000 0.000000 0.000000 0.000000 0.000000 0.000000 0.000000 0.000000 -0.000000 0.000001 -0.000000 -0.000000 0.000000 0.000000 0.000000 0.000000 0.000000 0.000000 0.000000 0.000000 -0.000000 0.000001 -0.000000 -0.000000 -0.000000 -0.000000 -0.000000 -0.000000 -0.000000 -0.000000 -0.000000 -0.000000 -0.000000 
0.547282 70.296303 1.453745 3.984588 -3.841094 -0.372403 -0.000000 0.000000 0.000000 -12.079012 11.933433 8.978074 18.009498 9.854430 2.328043 -7.050956 10.130810 -13.187438 0.000000 0.000000 0.000000 -0.000000 0.000000 -0.000000 -6.656511 -9.099205 -8.132961 4.286750 1.661297 -3.060535 -1.646692 -0.606751 11.256563 -0.000000 -0.000000 0.000000 -0.000000 0.000001 -0.000000 0.217119 0.345096 0.167312 0.527003 0.573325 -0.130857 0.523578 0.575050 -0.136850 -12.350567 -1.467114 2.608564 10.254265 2.993678 -2.553787 0.000000 0.000000 0.000000 0.000000 0.000000 0.000000 0.000000 0.000000 0.000000 0.000000 0.000000 0.000000 0.000000 -0.000000 -0.000000 0.000000 0.000000 0.000000 0.000000 -0.000000 -0.000000 0.000000 0.000000 0.000000 0.000000 0.000000 0.000000 1.600725 -11.335119 -9.636431 4.788502 -15.953739 -64.366419 0.000009 -13.199125 -0.000010 1.997310 -2.236782 -8.348276 0.699774 -6.020116 19.223957 19.074657 26.512417 -1.026344 0.000002 -0.000000 -0.000002 0.460246 4.491416 -23.662331 0.883086 3.094840 -31.844203 -0.000003 -0.000004 -0.000006 2.486445 8.732165 -25.419647 1.496288 3.911561 -41.853999 0.000002 0.000004 0.000001 3.090057 8.505066 -34.940365 1.098176 3.416402 -35.630259 -0.000000 -0.000001 -0.000001 3.603271 12.761724 -45.581267 0.673750 2.729594 -27.725828 -0.000001 -0.000005 0.000000 0.000005 -0.000001 0.000001 2.050649 15.038577 10.822166 -3.966568 3.264479 66.056371 0.000000 8.108387 -0.000025 10.399275 0.383249 7.934636 -13.495585 -11.552020 -5.371135 13.666564 -20.582679 -6.820341 0.000000 0.000001 -0.000000 0.246056 -3.262787 18.902296 0.589428 -2.269646 29.112633 -0.000000 0.000002 0.000002 -0.702540 -1.215805 21.259777 0.924241 -2.786651 36.691862 -0.000000 -0.000000 -0.000001 -0.941537 -2.664805 38.529223 0.358958 -1.794604 22.620045 0.000003 0.000002 0.000002 -2.260385 -1.124647 39.408129 0.612399 -2.310406 29.687595 -0.000001 0.000000 0.000000 0.000000 -0.000000 -0.000001 0.000000 -0.000000 0.000000 0.000000 0.000000 0.000000 0.000000 -0.000000 -0.000000 0.000000 -0.000000 -0.000000 0.000000 -0.000000 0.000000 0.000000 0.000000 0.000000 0.000000 -0.000000 -0.000000 0.000000 -0.000000 -0.000000 0.000000 -0.000000 0.000000 0.000000 0.000000 0.000000 -0.000000 0.000000 0.000000 -0.000000 0.000000 0.000000 -0.000000 0.000000 0.000000 
1.221563 70.207832 1.725587 4.129899 -3.937216 -0.461236 0.000000 0.000000 0.000000 -14.600752 11.597146 8.070563 22.701413 9.876263 2.621391 -7.708846 21.463460 -14.639713 0.000000 -0.000002 0.000001 0.000000 0.000001 0.000000 -7.077898 -9.025818 -8.592982 5.042154 1.777760 -3.260722 -2.121954 -0.681782 11.507282 -0.000000 -0.000001 -0.000000 -0.000000 0.000000 0.000001 0.291629 0.375864 0.234411 0.552352 0.591661 -0.103884 0.548726 0.593972 -0.109783 -12.067413 -1.465753 2.564862 10.094956 2.842612 -2.574036 -0.000000 0.000000 0.000000 -0.000000 0.000000 0.000000 -0.000000 0.000000 0.000000 -0.000000 0.000000 0.000000 -0.000000 0.000000 0.000000 -0.000000 0.000000 0.000000 -0.000000 0.000000 0.000000 -0.000000 0.000000 0.000000 -0.000000 0.000000 0.000000 1.580397 -11.368958 -9.777173 5.022957 -16.543970 -64.163214 -0.000006 -13.126606 -0.000020 2.461835 -2.546024 -8.378193 0.699771 -6.020116 19.223957 19.074666 26.512412 -1.026345 -0.000000 -0.000001 0.000001 0.460230 4.491399 -23.662342 0.883081 3.094848 -31.844189 -0.000003 -0.000001 -0.000002 2.486451 8.732153 -25.419657 1.496288 3.911563 -41.853989 0.000002 -0.000000 0.000002 3.090052 8.505069 -34.940359 1.098180 3.416397 -35.630269 0.000000 -0.000001 0.000001 3.603273 12.761715 -45.581291 0.673738 2.729591 -27.725795 -0.000001 -0.000003 0.000001 -0.000001 -0.000000 -0.000000 1.985963 15.209305 11.004927 -3.344587 3.289259 65.562036 -0.000007 8.981135 0.000016 9.974510 0.489262 8.088575 -13.495577 -11.552021 -5.371116 13.666585 -20.582685 -6.820310 -0.000000 -0.000002 0.000003 0.246061 -3.262786 18.902306 0.589427 -2.269647 29.112636 -0.000000 0.000000 -0.000001 -0.702528 -1.215806 21.259790 0.924250 -2.786659 36.691831 -0.000001 -0.000001 -0.000001 -0.941522 -2.664812 38.529230 0.358953 -1.794601 22.620051 -0.000001 -0.000001 0.000003 -2.260386 -1.124646 39.408149 0.612404 -2.310405 29.687595 0.000002 0.000000 -0.000001 0.000002 0.000000 0.000001 0.000000 0.000000 -0.000000 0.000000 0.000000 -0.000000 0.000000 0.000000 -0.000000 0.000000 0.000000 -0.000000 0.000000 0.000000 -0.000000 0.000000 0.000000 -0.000000 0.000000 0.000000 -0.000000 0.000000 0.000000 -0.000000 0.000000 0.000000 -0.000000 0.000000 0.000000 -0.000000 0.000000 0.000000 0.000000 0.000000 0.000000 0.000000 0.000000 0.000000 0.000000 
1.942746 70.144913 2.164827 4.266459 -3.966610 -0.515817 0.000000 0.000000 -0.000000 -14.020225 11.759814 6.790927 21.473106 10.127980 2.812217 -5.440631 28.983061 -10.624866 0.000000 -0.000002 0.000000 0.000000 -0.000001 -0.000000 -7.228260 -8.999881 -9.091281 5.592039 1.821964 -3.457845 -2.649603 -0.760152 11.580682 -0.000000 0.000001 0.000000 -0.000000 -0.000001 -0.000001 0.388844 0.392104 0.271379 0.588885 0.596108 -0.072108 0.585199 0.599181 -0.077937 -11.743240 -1.444629 2.523376 9.753160 2.731909 -2.626897 0.000000 0.000000 0.000000 0.000000 0.000000 0.000000 0.000000 0.000000 0.000000 0.000000 0.000000 0.000000 0.000000 0.000000 0.000000 0.000000 0.000000 0.000000 0.000000 0.000000 0.000000 0.000000 0.000000 0.000000 0.000000 0.000000 0.000000 1.543910 -11.494555 -9.973886 5.648341 -17.337185 -63.742549 0.000000 -13.397488 0.000003 2.992640 -2.871030 -8.428691 0.699773 -6.020117 19.223957 19.074668 26.512414 -1.026340 0.000004 -0.000000 0.000000 0.460239 4.491411 -23.662379 0.883076 3.094832 -31.844179 0.000000 -0.000000 -0.000004 2.486434 8.732142 -25.419678 1.496302 3.911578 -41.853982 0.000003 -0.000000 0.000001 3.090046 8.505068 -34.940365 1.098181 3.416394 -35.630269 -0.000002 0.000002 -0.000001 3.603262 12.761714 -45.581298 0.673744 2.729586 -27.725814 -0.000001 0.000001 0.000005 0.000000 -0.000000 0.000000 1.899273 15.323401 11.384125 -2.361839 3.354726 64.831807 0.000005 10.393769 0.000022 9.497854 0.548991 8.355893 -13.495578 -11.552031 -5.371136 13.666572 -20.582679 -6.820340 -0.000003 0.000001 -0.000000 0.246061 -3.262788 18.902284 0.589427 -2.269648 29.112640 0.000001 0.000001 0.000004 -0.702534 -1.215808 21.259780 0.924241 -2.786656 36.691855 0.000000 -0.000001 0.000001 -0.941532 -2.664809 38.529230 0.358954 -1.794606 22.620055 0.000001 -0.000002 -0.000002 -2.260379 -1.124656 39.408125 0.612406 -2.310405 29.687598 -0.000003 -0.000000 -0.000003 0.000001 -0.000001 0.000001 -0.000000 -0.000000 -0.000000 -0.000000 -0.000000 -0.000000 -0.000000 -0.000000 0.000000 -0.000000 -0.000000 0.000000 -0.000000 -0.000000 -0.000000 -0.000000 -0.000000 -0.000000 -0.000000 -0.000000 0.000000 -0.000000 -0.000000 0.000000 -0.000000 -0.000000 -0.000000 -0.000000 -0.000000 -0.000000 0.000000 0.000000 -0.000000 0.000000 0.000000 -0.000000 0.000000 0.000000 -0.000000 
